<svg version="1.2" baseProfile="tiny-ps" xmlns="http://www.w3.org/2000/svg" viewBox="0 0 952 354" width="952" height="354">
	<title>yahoo-finance-seeklogo</title>
	<style>
		tspan { white-space:pre }
		.shp0 { fill: #ffffff } 
	</style>
	<g id="katman 1">
		<path id="&lt;Compound Path&gt;" fill-rule="evenodd" class="shp0" d="M341.52 5.96L392.34 5.96L392.34 83.46L395.96 79.86C402.53 73.32 409.8 69.38 419.05 67.36C422.79 66.54 433.47 66.2 437.71 66.77C448.57 68.22 457.38 72.43 464.5 79.58C472.77 87.87 477.65 99.01 479.33 113.38C479.8 117.42 479.89 125.71 479.89 166.13L479.89 214.08L428.69 214.08L428.69 172.99C428.69 146.75 428.55 131.04 428.31 129.5C426.72 119.42 421.45 114.14 412.51 113.64C405.6 113.25 400.52 115.63 397.02 120.9C395.08 123.82 393.67 127.76 393.11 131.84C392.85 133.76 392.71 148.19 392.71 174.41L392.71 214.08L341.52 214.08L341.52 5.96ZM886.44 5.96L916.7 5.96C933.34 5.96 946.94 6.09 946.93 6.24C946.91 6.39 934.76 35.81 919.92 71.62L892.94 136.73L862.63 136.82C845.96 136.88 832.32 136.84 832.32 136.73C832.32 136.55 884.36 10.72 885.75 7.54L886.44 5.96ZM237.83 66.61C244.19 66.71 245.8 66.86 249.14 67.66C259.19 70.06 267.23 74.39 273.16 80.62L275.48 83.06L275.48 69.77L324.82 69.77L324.82 214.08L275.48 214.08L275.48 201.13L272.24 204.41C265.97 210.73 258.37 214.66 248.03 216.91C245.44 217.48 243.31 217.6 236.16 217.59C226.3 217.57 223.38 217.14 215.35 214.46C193.33 207.13 176.58 188.07 170.26 163.13C167.75 153.2 167.1 140.28 168.61 130.03C171.88 107.81 183.64 88.54 200.87 77.15C209.42 71.5 218.01 68.33 229.29 66.66C229.91 66.57 233.75 66.55 237.83 66.61ZM578.63 67.02C592.81 68.85 605.83 74.26 616.97 82.93C620.79 85.91 627.85 93.26 630.66 97.19C637.67 106.98 642.24 118.45 644.07 130.79C644.95 136.73 644.96 147.35 644.09 153.38C640.5 178.24 625.88 198.68 603.88 209.59C592.19 215.39 581.58 217.79 567.58 217.79C559.55 217.79 553.55 217.09 546.85 215.38C517.01 207.74 495.63 184.13 491.23 153.97C487.25 126.67 497.2 100.04 517.57 83.44C528.01 74.94 542.16 68.93 556.14 67.05C561.76 66.3 572.92 66.28 578.63 67.02ZM741.29 67C774.53 71.36 799.78 94.4 806.13 126.16C813.01 160.57 797.58 193.82 767.59 209.23C756.26 215.05 744.41 217.79 730.53 217.79C723.28 217.79 719.7 217.46 713.66 216.26C681.88 209.95 658.65 185.46 654.02 153.38C653.15 147.35 653.16 136.73 654.04 130.79C655.87 118.45 660.44 106.98 667.45 97.19C670.26 93.26 677.32 85.91 681.15 82.93C692.1 74.4 705.19 68.91 719 67.05C724.54 66.31 735.82 66.28 741.29 67ZM30.9 69.86L58.61 69.95L74.95 111.75C83.94 134.74 91.38 153.63 91.48 153.73C91.58 153.83 99.11 135.02 108.22 111.93L124.77 69.95L151.71 69.86C173.16 69.78 178.65 69.86 178.63 70.23C178.62 70.49 160.21 115.02 137.72 169.19L96.84 267.68L69.67 267.78C54.73 267.83 42.51 267.81 42.51 267.74C42.51 267.66 47.45 255.93 53.5 241.67C59.54 227.41 64.49 215.57 64.5 215.35C64.51 215.13 50.72 182.38 33.85 142.56C16.98 102.75 3.18 70.08 3.18 69.97C3.18 69.86 15.66 69.81 30.9 69.86ZM222.12 125.54C216.86 133.14 215.74 144.48 219.36 153.53C222.66 161.76 230.33 168.38 239.31 170.72C243.47 171.81 250.38 171.81 254.52 170.72C264.94 167.98 272.76 160.16 275.53 149.71C276.63 145.56 276.63 138.67 275.53 134.5C272.76 124 264.58 115.94 254.32 113.59C241.43 110.64 229.32 115.14 222.12 125.54ZM551.65 117.83C547.13 120.81 543.29 125.52 541.25 130.55C539.56 134.73 539.1 137.21 539.11 142.11C539.11 147.51 539.73 150.41 541.83 154.91C545.36 162.47 551.87 167.93 560.02 170.18C563.37 171.1 571.82 171.09 575.23 170.16C585.11 167.47 592.66 159.77 595.3 149.71C596.31 145.88 596.4 139.02 595.5 135.29C592.75 123.93 584.17 115.69 573.01 113.7C565.63 112.38 557.55 113.94 551.65 117.83ZM730.3 113.22C717.06 113.32 706.22 121.72 702.8 134.55C701.71 138.65 701.71 145.56 702.81 149.71C705.46 159.78 713.01 167.47 722.88 170.16C726.29 171.09 734.75 171.1 738.09 170.18C746.25 167.93 752.75 162.47 756.28 154.91C758.39 150.41 759 147.51 759.01 142.11C759.01 137.21 758.55 134.73 756.86 130.55C753.3 121.73 745.42 115.41 735.86 113.7C734.33 113.42 731.83 113.21 730.3 113.22ZM865.72 154.06C875.77 160.24 881.29 170.29 881.29 182.4C881.29 192.26 878.18 199.82 871.31 206.69C864.47 213.53 856.86 216.68 847.15 216.68C844.86 216.68 841.79 216.42 840.19 216.09C827.63 213.51 817.91 204.11 814.81 191.56C813.81 187.49 813.71 180.4 814.61 176.37C817.83 161.87 829.55 151.26 844.38 149.41C851.28 148.55 859.77 150.39 865.72 154.06ZM428.38 227.19C431.58 227.3 432.26 227.46 434.79 228.66C443.31 232.71 446.88 242.31 442.96 250.64C441.52 253.7 437.99 257.16 434.75 258.69C432.34 259.84 432.02 259.89 427.77 259.89C423.53 259.89 423.2 259.84 420.81 258.71C417.99 257.37 414.63 254.4 413.22 252C407.84 242.82 412.38 231.16 422.67 227.76C424.33 227.21 425.59 227.08 428.38 227.19ZM388.69 227.84C394.51 227.8 398.12 228.31 401.71 229.65L403.84 230.45L403.84 242.86C403.84 249.68 403.78 255.26 403.71 255.26C403.64 255.26 402.6 254.91 401.39 254.49C397.94 253.29 393.38 253.13 390.2 254.09C385.48 255.53 383.11 258.84 382.53 264.81L382.28 267.5L402.74 267.5L402.54 291.8L392.43 291.9L382.32 292L382.32 349.49L352.64 349.49L352.64 292L347.17 291.9L341.7 291.8L341.6 279.65L341.51 267.5L352.54 267.5L352.75 262.21C352.89 258.73 353.23 255.87 353.74 253.82C357.18 239.99 366.19 231.29 379.91 228.54C382.15 228.09 385.04 227.86 388.69 227.84ZM515.87 266.39C520.48 267.7 523.48 269.49 527.01 273.04C530.65 276.69 532.7 280.21 534.19 285.37C535.76 290.77 535.91 294.04 535.91 322.57L535.91 349.49L505.91 349.49L505.77 325.46C505.62 299.2 505.66 299.63 503.41 296.38C500.55 292.25 493.69 291.48 489.36 294.78C487.73 296.03 485.94 299.6 485.45 302.56C485.24 303.84 485.09 314.29 485.09 327.13L485.08 349.49L455.03 349.49L455.03 267.5L485.08 267.5L485.08 276.85L486.77 274.6C490.07 270.21 495.17 267.15 501.41 265.81C504.88 265.06 512.27 265.36 515.87 266.39ZM588.32 265.83C594.65 266.93 600.19 269.77 604.08 273.91L606.02 275.99L606.02 267.5L635.7 267.5L635.7 349.49L606.02 349.49L606.02 341.25L603.03 344.06C599.75 347.15 595.96 349.28 591.37 350.63C587.35 351.82 579.47 352.01 574.79 351.04C566.14 349.25 558.42 344.34 552.98 337.17C548.88 331.77 546.04 325.19 544.58 317.72C543.72 313.32 543.7 304.16 544.54 299.59C546.65 288.08 552.68 278.14 561.38 271.84C565.18 269.09 572.43 266.21 577.27 265.54C579.91 265.17 585.39 265.31 588.32 265.83ZM710.8 267.09C714.24 268.3 716.88 270.04 719.99 273.16C722.38 275.54 723.18 276.68 724.72 279.83C725.74 281.93 726.94 285.06 727.4 286.79C728.22 289.91 728.23 290.27 728.35 319.71L728.47 349.49L698.42 349.49L698.31 325.09C698.19 297.35 698.31 298.54 695.09 295.33C693.14 293.39 691.36 292.72 688.15 292.73C684.49 292.75 681.37 294.6 679.76 297.73C678.03 301.08 678 301.59 678 326.21L677.99 349.49L647.57 349.49L647.66 308.58L647.76 267.68L662.87 267.59L677.99 267.49L677.99 276.51L679.27 274.83C682.42 270.71 688.49 266.95 693.76 265.87C698.96 264.8 705.64 265.27 710.8 267.09ZM797.68 268.49L800.04 269.43L800.04 283.15C800.04 290.69 799.92 296.81 799.76 296.73C791.87 292.8 789.62 292.19 784.09 292.46C776.31 292.84 770.53 296.51 768.08 302.65C767.39 304.39 767.23 305.49 767.22 308.68C767.21 312.3 767.3 312.75 768.39 315.07C769.98 318.41 772.45 320.99 775.6 322.56C779.05 324.29 781.6 324.76 786.31 324.53C790.89 324.31 793.91 323.45 797.54 321.32L800.05 319.85L799.95 333.63L799.86 347.41L796.89 348.62C791.1 350.98 788.06 351.51 780.2 351.51C774.71 351.52 772.45 351.37 769.99 350.83C754.79 347.52 743.38 337.54 738.86 323.57C737.13 318.22 736.79 315.73 736.8 308.31C736.81 302.02 736.9 301.11 737.85 297.44C739.02 292.89 740.53 289.11 742.46 285.86C748.92 275.03 759.72 267.94 772.96 265.84C780.96 264.58 790.45 265.59 797.68 268.49ZM858.47 266.18C866.99 268.07 873.31 271.39 878.91 276.95C884.77 282.77 888.43 289.81 890.41 299.05C890.91 301.4 891.08 303.9 891.1 309.05L891.12 315.91L862.88 316.01L834.64 316.1L834.95 317.76C836.39 325.44 845.2 330.06 854.03 327.76C856.89 327.02 858.77 325.9 861.07 323.57L862.92 321.68L875.54 326.53C882.47 329.2 888.22 331.45 888.31 331.53C888.66 331.87 884.63 337.22 882.15 339.7C876.85 345.01 869.53 348.85 861.26 350.66C855.95 351.82 843.19 351.91 838.26 350.83C826.8 348.32 818.24 342.79 812.54 334.21C808.54 328.19 806.37 321.68 805.59 313.37C803.37 289.82 818.35 269.87 841.26 265.85C845.15 265.16 854.71 265.35 858.47 266.18ZM412.74 267.5L442.79 267.5L442.79 349.49L412.74 349.49L412.74 267.5ZM835.71 295.83C834.39 299.34 833.16 299.03 848.6 299.03L862.29 299.03L861.95 297.52C861.43 295.2 860.37 293.4 858.55 291.72C856.65 289.97 855.39 289.25 853.28 288.72C845.5 286.76 837.96 289.81 835.71 295.83ZM574.96 301.54C573.78 303.93 573.58 304.72 573.44 307.57C573.32 310.17 573.45 311.38 574.07 313.43C575.57 318.36 579.85 322.63 584.83 324.17C587.75 325.07 592.9 324.97 595.72 323.96C605 320.61 609.25 310.28 605.02 301.32C603.22 297.51 598.77 293.83 594.7 292.8C586.53 290.72 578.57 294.25 574.96 301.54Z" />
	</g>
</svg>