<svg width="34" height="34" viewBox="0 0 34 34" fill="none" xmlns="http://www.w3.org/2000/svg">
<mask id="path-1-inside-1" fill="white">
<path fill-rule="evenodd" clip-rule="evenodd" d="M0 3.86364C0 1.72981 1.72981 0 3.86364 0H24.4443C25.469 0 26.4518 0.407059 27.1763 1.13163L32.8684 6.82368C33.5929 7.54825 34 8.53098 34 9.55568V30.1364C34 32.2702 32.2702 34 30.1364 34H10.1757C9.15103 34 8.1683 33.5929 7.44373 32.8684L1.13163 26.5563C0.40706 25.8317 0 24.849 0 23.8243V3.86364Z"/>
</mask>
<path d="M7.44373 32.8684L8.15084 32.1613L7.44373 32.8684ZM32.8684 6.82368L33.5755 6.11657L32.8684 6.82368ZM27.1763 1.13163L27.8834 0.424524L27.1763 1.13163ZM24.4443 -1H3.86364V1H24.4443V-1ZM33.5755 6.11657L27.8834 0.424524L26.4692 1.83874L32.1613 7.53078L33.5755 6.11657ZM35 30.1364V9.55568H33V30.1364H35ZM10.1757 35H30.1364V33H10.1757V35ZM0.424526 27.2634L6.73662 33.5755L8.15084 32.1613L1.83874 25.8492L0.424526 27.2634ZM-1 3.86364V23.8243H1V3.86364H-1ZM1.83874 25.8492C1.3017 25.3121 1 24.5837 1 23.8243H-1C-1 25.1142 -0.487583 26.3513 0.424526 27.2634L1.83874 25.8492ZM10.1757 33C9.41625 33 8.68787 32.6983 8.15084 32.1613L6.73662 33.5755C7.64873 34.4876 8.88582 35 10.1757 35V33ZM33 30.1364C33 31.7179 31.7179 33 30.1364 33V35C32.8225 35 35 32.8225 35 30.1364H33ZM32.1613 7.53078C32.6983 8.06782 33 8.7962 33 9.55568H35C35 8.26576 34.4876 7.02868 33.5755 6.11657L32.1613 7.53078ZM3.86364 -1C1.17753 -1 -1 1.17752 -1 3.86364H1C1 2.28209 2.2821 1 3.86364 1V-1ZM24.4443 1C25.2038 1 25.9322 1.3017 26.4692 1.83874L27.8834 0.424524C26.9713 -0.487585 25.7342 -1 24.4443 -1V1Z" fill="white" mask="url(#path-1-inside-1)"/>
<path d="M12 12L21.8352 21.8352" stroke="#E8EAED" stroke-width="1.54545" stroke-linecap="round" stroke-linejoin="round"/>
<path d="M12 21.8352L21.8352 12" stroke="#E8EAED" stroke-width="1.54545" stroke-linecap="round" stroke-linejoin="round"/>
</svg>
